<svg width="50" height="50" viewBox="0 0 50 50" fill="none" xmlns="http://www.w3.org/2000/svg">
<path fill-rule="evenodd" clip-rule="evenodd" d="M19.6875 33.9063C21.25 34.8438 23.125 35.3125 25 35.3125C30.7813 35.3125 35.3125 30.625 35.3125 25.1563C35.3125 22.3438 34.375 19.8437 32.3438 17.8125C30.3125 15.9375 27.8125 14.8438 25 14.8438C19.375 14.8438 14.6875 19.5313 14.6875 25.1563C14.6875 27.0313 15.1563 28.9063 16.25 30.625L16.5625 31.0938L15.4688 34.8438L19.375 33.75L19.6875 33.9063ZM28.4375 26.5625C28.75 26.5625 30.3125 27.3438 30.625 27.5C30.6736 27.5244 30.7224 27.5448 30.7705 27.5652C31.0311 27.6752 31.2744 27.778 31.4063 28.4375C31.5625 28.4375 31.5625 29.0625 31.25 29.8438C31.0938 30.4688 29.8438 31.25 29.2188 31.25C29.1128 31.25 29.0114 31.2589 28.9031 31.2686C28.3722 31.3155 27.675 31.3772 25.4688 30.4688C22.7305 29.3734 20.832 26.7186 20.2989 25.9731C20.2236 25.8678 20.1756 25.8006 20.1563 25.7813C20.1297 25.7281 20.0758 25.6431 20.0049 25.5311C19.6592 24.9853 18.9063 23.7964 18.9063 22.5C18.9063 20.9375 19.6875 20.1563 20 19.8438C20.3125 19.5313 20.625 19.5313 20.7813 19.5313H21.4063C21.5625 19.5313 21.875 19.5313 22.0313 20C22.3438 20.625 22.9688 22.1875 22.9688 22.3438C22.9688 22.3958 22.9861 22.448 23.0035 22.5C23.0383 22.6042 23.073 22.7083 22.9688 22.8125C22.8906 22.8906 22.8516 22.9688 22.8125 23.0469C22.7735 23.125 22.7344 23.2031 22.6563 23.2813L22.1875 23.75C22.0313 23.9063 21.875 24.0625 22.0313 24.375C22.1875 24.6875 22.8125 25.7813 23.75 26.5625C24.8049 27.4855 25.6372 27.8522 26.0591 28.038C26.1372 28.0723 26.2013 28.1006 26.25 28.125C26.5625 28.125 26.7188 28.125 26.875 27.9688C26.9531 27.8125 27.1485 27.5781 27.3438 27.3438C27.5391 27.1094 27.7344 26.875 27.8125 26.7188C27.9688 26.4063 28.125 26.4063 28.4375 26.5625Z" fill="#106B5B"/>
<path fill-rule="evenodd" clip-rule="evenodd" d="M0 25C0 11.1929 11.1929 0 25 0C38.8072 0 50 11.1929 50 25C50 38.8072 38.8072 50 25 50C11.1929 50 0 38.8072 0 25ZM25 12.5C28.2812 12.5 31.4063 13.75 33.75 16.0938C36.0938 18.4375 37.5 21.5625 37.5 24.8437C37.5 31.7187 31.875 37.3437 25 37.3437C22.9688 37.3437 20.9375 36.7187 19.0625 35.7812L12.5 37.5L14.2188 31.25C13.125 29.375 12.5 27.1875 12.5 25C12.5 18.125 18.125 12.5 25 12.5Z" fill="#106B5B"/>
</svg>
