<svg width="50" height="50" viewBox="0 0 50 50" fill="none" xmlns="http://www.w3.org/2000/svg">
<path d="M35.151 17.3203C34.9341 16.7585 34.6019 16.2483 34.1758 15.8226C33.7497 15.397 33.2392 15.0653 32.6771 14.849C31.9031 14.5623 31.0857 14.4108 30.2604 14.401C28.888 14.3385 28.4766 14.3229 25 14.3229C21.5234 14.3229 21.112 14.3385 19.7396 14.401C18.9134 14.4105 18.0951 14.562 17.3203 14.849C16.7585 15.0659 16.2483 15.3981 15.8226 15.8242C15.397 16.2503 15.0653 16.7608 14.849 17.3229C14.5623 18.0969 14.4108 18.9143 14.401 19.7396C14.3385 21.112 14.3229 21.5234 14.3229 25C14.3229 28.4766 14.3385 28.888 14.401 30.2604C14.4105 31.0866 14.562 31.9049 14.849 32.6797C15.0659 33.2415 15.3981 33.7517 15.8242 34.1774C16.2503 34.603 16.7608 34.9347 17.3229 35.151C18.0969 35.4377 18.9143 35.5892 19.7396 35.5989C21.112 35.6614 21.5234 35.6745 25 35.6745C28.4766 35.6745 28.888 35.6614 30.2604 35.5963C31.0864 35.5877 31.9048 35.4371 32.6797 35.151C33.2415 34.9341 33.7517 34.6019 34.1774 34.1758C34.603 33.7497 34.9347 33.2392 35.151 32.6771C35.4377 31.9031 35.5892 31.0857 35.599 30.2604C35.6615 28.888 35.6745 28.4766 35.6745 25C35.6745 21.5234 35.6615 21.112 35.5964 19.7396C35.5877 18.9136 35.4371 18.0952 35.151 17.3203ZM25 31.6875C23.6773 31.6875 22.3844 31.2953 21.2846 30.5604C20.1849 29.8256 19.3277 28.7812 18.8216 27.5592C18.3154 26.3372 18.183 24.9926 18.441 23.6953C18.699 22.3981 19.336 21.2065 20.2712 20.2712C21.2065 19.336 22.3981 18.699 23.6953 18.441C24.9926 18.183 26.3372 18.3154 27.5592 18.8216C28.7812 19.3277 29.8256 20.1849 30.5605 21.2846C31.2953 22.3844 31.6875 23.6773 31.6875 25C31.6875 26.7736 30.9829 28.4746 29.7288 29.7288C28.4746 30.9829 26.7736 31.6875 25 31.6875ZM31.9505 19.612C31.6415 19.612 31.3394 19.5203 31.0824 19.3486C30.8255 19.177 30.6252 18.9329 30.507 18.6474C30.3887 18.3619 30.3578 18.0477 30.418 17.7446C30.4783 17.4416 30.6272 17.1631 30.8457 16.9446C31.0642 16.7261 31.3426 16.5773 31.6457 16.517C31.9488 16.4567 32.263 16.4877 32.5485 16.6059C32.834 16.7242 33.078 16.9244 33.2497 17.1814C33.4214 17.4383 33.513 17.7404 33.513 18.0495C33.513 18.4639 33.3484 18.8613 33.0554 19.1543C32.7624 19.4474 32.3649 19.612 31.9505 19.612ZM29.3412 25C29.3412 25.8586 29.0865 26.6979 28.6095 27.4118C28.1325 28.1257 27.4545 28.6821 26.6613 29.0107C25.868 29.3393 24.9952 29.4252 24.1531 29.2577C23.311 29.0902 22.5375 28.6768 21.9304 28.0696C21.3232 27.4625 20.9098 26.689 20.7423 25.8469C20.5748 25.0048 20.6607 24.132 20.9893 23.3387C21.3179 22.5455 21.8743 21.8675 22.5882 21.3905C23.3021 20.9135 24.1414 20.6588 25 20.6588C26.1514 20.6588 27.2555 21.1162 28.0697 21.9303C28.8838 22.7445 29.3412 23.8487 29.3412 25ZM25 0C20.0555 0 15.222 1.46622 11.1108 4.21326C6.99952 6.96029 3.79521 10.8648 1.90302 15.4329C0.0108321 20.0011 -0.484251 25.0277 0.480379 29.8773C1.44501 34.7268 3.82603 39.1813 7.32234 42.6777C10.8187 46.174 15.2732 48.555 20.1227 49.5196C24.9723 50.4843 29.9989 49.9892 34.5671 48.097C39.1352 46.2048 43.0397 43.0005 45.7867 38.8892C48.5338 34.778 50 29.9445 50 25C50 18.3696 47.3661 12.0107 42.6777 7.32233C37.9893 2.63392 31.6304 0 25 0ZM37.9427 30.3672C37.9207 31.4477 37.7155 32.5167 37.3359 33.5286C37.0015 34.3934 36.4901 35.1788 35.8344 35.8344C35.1788 36.4901 34.3934 37.0015 33.5287 37.3359C32.5175 37.7152 31.4495 37.9204 30.3698 37.9427C28.9792 38.0052 28.5365 38.0208 25 38.0208C21.4635 38.0208 21.0208 38.0052 19.6302 37.9427C18.5505 37.9204 17.4825 37.7152 16.4714 37.3359C15.6066 37.0015 14.8212 36.4901 14.1656 35.8344C13.5099 35.1788 12.9985 34.3934 12.6641 33.5286C12.2848 32.5175 12.0796 31.4495 12.0573 30.3698C11.9948 28.9792 11.9792 28.5365 11.9792 25C11.9792 21.4635 11.9948 21.0208 12.0573 19.6302C12.0788 18.5507 12.2831 17.4826 12.6615 16.4713C12.9959 15.6058 13.5076 14.8198 14.1637 14.1637C14.8198 13.5076 15.6058 12.9959 16.4714 12.6615C17.4826 12.2831 18.5507 12.0788 19.6302 12.0573C21.0208 11.9948 21.4635 11.9792 25 11.9792C28.5365 11.9792 28.9792 11.9948 30.3698 12.0573C31.4493 12.0788 32.5174 12.2831 33.5287 12.6615C34.3937 12.9962 35.1792 13.508 35.8349 14.1641C36.4905 14.8202 37.0018 15.6061 37.3359 16.4713C37.7152 17.4825 37.9204 18.5505 37.9427 19.6302C38.0052 21.0208 38.0208 21.4635 38.0208 25C38.0208 28.5365 38.0052 28.9766 37.9427 30.3672Z" fill="#106B5B"/>
</svg>
